<?xml version="1.0" encoding="utf-8"?>
<!-- Generator: Adobe Illustrator 24.0.2, SVG Export Plug-In . SVG Version: 6.00 Build 0)  -->
<svg version="1.1" id="Layer_1" xmlns="http://www.w3.org/2000/svg" xmlns:xlink="http://www.w3.org/1999/xlink" x="0px" y="0px"
	 viewBox="0 0 180 180" style="enable-background:new 0 0 180 180;" xml:space="preserve">
<style type="text/css">
	.st0{fill:#2F93E0;}
</style>
<path class="st0" d="M37.1,121.6c9.4-5.9,20.5-16.2,16.5-28.4c-2.2-6.7-5.3-12.4-5.7-19.6c-0.3-6.1,0.7-12.2,2.8-17.8
	c8.6-22.5,33.7-32.9,56.2-25.9c20.8,6.5,35,30.9,26.1,52c-5.1,12.2-7.4,21.6,3.6,31.2c3,2.6,10.3,6.5,10.2,11.1
	c-0.1,6-11.8-1.4-13.1-2.4c1.5,2.6,16.1,18.2,6.7,19.2c-8.7,0.9-16.2-11.3-21.4-16.5c-8.7-8.8-7.3,10.5-7.4,14.5
	c-0.1,6.3-4.7,19-12.6,10.6c-6.5-6.9-3.9-17.9-8.4-25.5c-4.9-8.4-13.5,8.2-15.6,11.2c-2.4,3.4-14.2,19.8-18.8,11
	c-3.7-7.2,2.4-18.3,5.5-24.8c-1.1,2.3-8.8,5.7-11,6.8c-5.1,2.5-10.2,4-15.9,3.5C23.2,130.8,32.3,124.6,37.1,121.6z"/>
</svg>
